<svg xmlns="http://www.w3.org/2000/svg" width="512" height="512" viewBox="0 0 512 512" data-svgdocument="" id="_3qcLrDpQ6JrxcWAie__xY" class="fl-svgdocument" x="0" y="0" xmlns:xlink="http://www.w3.org/1999/xlink" style=""><defs id="_Mz_1Sy8Z-r4V5NhIO4399" transform="matrix(0.6453708410263062, 0, 0, 0.6453708410263062, -19.261096954345703, 186.8233184814453)"></defs><path text="The Gossip" text-anchor="start" font-size="100" letter-spacing="0" side="left" offset="0" dx="0" dy="0" space="preserve" href="" font-family="Bungee" font-scale="contain" transform="matrix(0.5749486088752747, 0, 0, 0.5749486088752747, 148.28190774231192, 239.46296347308908)" x="0" y="0" fill="#a77f7f" data-fl-textpath="" id="_dbHH01i2xlTP3TKjYS3EL" d="M 40.9 0L 40.9 0L 24.7 0Q 22.8 0  21.95-0.85Q 21.1-1.7  21.1-3.6L 21.1-3.6L 21.1-52.7L 6.4-52.7Q 4.5-52.7  3.65-53.55Q 2.8-54.4  2.8-56.3L 2.8-56.3L 2.8-68.4Q 2.8-70.3  3.65-71.15Q 4.5-72  6.4-72L 6.4-72L 59.2-72Q 61.1-72  61.95-71.15Q 62.8-70.3  62.8-68.4L 62.8-68.4L 62.8-56.3Q 62.8-54.4  61.95-53.55Q 61.1-52.7  59.2-52.7L 59.2-52.7L 44.5-52.7L 44.5-3.6Q 44.5-1.7  43.65-0.85Q 42.8 0  40.9 0ZM 91.60000000000001 0L 91.60000000000001 0L 76.10000000000001 0Q 74.2 0  73.35000000000001-0.85Q 72.50000000000001-1.7  72.50000000000001-3.6L 72.50000000000001-3.6L 72.50000000000001-68.4Q 72.50000000000001-70.3  73.35000000000001-71.15Q 74.2-72  76.10000000000001-72L 76.10000000000001-72L 91.60000000000001-72Q 93.5-72  94.35000000000001-71.15Q 95.20000000000002-70.3  95.20000000000002-68.4L 95.20000000000002-68.4L 95.20000000000002-46.7L 111.9-46.7L 111.9-68.4Q 111.9-70.3  112.75-71.15Q 113.60000000000001-72  115.5-72L 115.5-72L 131-72Q 132.9-72  133.75-71.15Q 134.60000000000002-70.3  134.60000000000002-68.4L 134.60000000000002-68.4L 134.60000000000002-3.6Q 134.60000000000002-1.7  133.75-0.85Q 132.9 0  131 0L 131 0L 115.5 0Q 113.60000000000001 0  112.75-0.85Q 111.9-1.7  111.9-3.6L 111.9-3.6L 111.9-25.8L 95.20000000000002-25.8L 95.20000000000002-3.6Q 95.20000000000002-1.7  94.35000000000001-0.85Q 93.5 0  91.60000000000001 0ZM 198.4 0L 198.4 0L 152 0Q 150.1 0  149.25-0.85Q 148.4-1.7  148.4-3.6L 148.4-3.6L 148.4-68.4Q 148.4-70.3  149.25-71.15Q 150.1-72  152-72L 152-72L 198.4-72Q 200.3-72  201.15-71.15Q 202-70.3  202-68.4L 202-68.4L 202-56.7Q 202-54.8  201.15-53.95Q 200.3-53.1  198.4-53.1L 198.4-53.1L 170.8-53.1L 170.8-45.4L 190.3-45.4Q 192.2-45.4  193.05-44.55Q 193.9-43.7  193.9-41.8L 193.9-41.8L 193.9-31.1Q 193.9-29.2  193.05-28.35Q 192.2-27.5  190.3-27.5L 190.3-27.5L 170.8-27.5L 170.8-18.9L 198.4-18.9Q 200.3-18.9  201.15-18.05Q 202-17.2  202-15.3L 202-15.3L 202-3.6Q 202-1.7  201.15-0.85Q 200.3 0  198.4 0ZM 291.3 0L 291.3 0L 259.8 0Q 247.3 0  241.25-5Q 235.20000000000002-10  235.20000000000002-20.4L 235.20000000000002-20.4L 235.20000000000002-51.6Q 235.20000000000002-62  241.25-67Q 247.3-72  259.8-72L 259.8-72L 284.8-72Q 286.7-72  287.55-71.15Q 288.4-70.3  288.4-68.4L 288.4-68.4L 288.4-56.3Q 288.4-54.4  287.55-53.55Q 286.7-52.7  284.8-52.7L 284.8-52.7L 264-52.7Q 260.9-52.7  259.4-51.45Q 257.9-50.2  257.9-47.7L 257.9-47.7L 257.9-23.8Q 257.9-21.3  259.05-20.1Q 260.2-18.9  262.5-18.9L 262.5-18.9L 272.2-18.9L 272.2-34.5Q 272.2-36.4  273.05-37.25Q 273.9-38.1  275.8-38.1L 275.8-38.1L 291.3-38.1Q 293.2-38.1  294.05-37.25Q 294.9-36.4  294.9-34.5L 294.9-34.5L 294.9-3.6Q 294.9-1.7  294.05-0.85Q 293.2 0  291.3 0ZM 368.1-53L 368.1-18.9Q 368.1-14.3  366.75-10.55Q 365.4-6.8  361.95-4.15Q 358.5-1.5  352.45 0Q 346.4 1.5  337.09999999999997 1.5L 337.09999999999997 1.5Q 327.8 1.5  321.7 0Q 315.59999999999997-1.5  312.15-4.15Q 308.7-6.8  307.34999999999997-10.55Q 306-14.3  306-18.9L 306-18.9L 306-53Q 306-57.6  307.34999999999997-61.35Q 308.7-65.1  312.15-67.8Q 315.59999999999997-70.5  321.7-72Q 327.8-73.5  337.09999999999997-73.5L 337.09999999999997-73.5Q 346.4-73.5  352.45-72Q 358.5-70.5  361.95-67.8Q 365.4-65.1  366.75-61.35Q 368.1-57.6  368.1-53L 368.1-53ZM 328.7-49.4L 328.7-22.5Q 328.7-20.5  330.2-19.15Q 331.7-17.8  337.09999999999997-17.8L 337.09999999999997-17.8Q 342.5-17.8  344-19.15Q 345.5-20.5  345.5-22.5L 345.5-22.5L 345.5-49.4Q 345.5-51.3  344-52.65Q 342.5-54  337.09999999999997-54L 337.09999999999997-54Q 331.7-54  330.2-52.65Q 328.7-51.3  328.7-49.4L 328.7-49.4ZM 414.2 0L 414.2 0L 382.59999999999997 0Q 380.7 0  379.84999999999997-0.85Q 379-1.7  379-3.6L 379-3.6L 379-15.3Q 379-17.2  379.84999999999997-18.05Q 380.7-18.9  382.59999999999997-18.9L 382.59999999999997-18.9L 409.5-18.9Q 410.79999999999995-18.9  411.45-19.75Q 412.09999999999997-20.6  412.09999999999997-21.8L 412.09999999999997-21.8Q 412.09999999999997-23.5  411.45-24.3Q 410.79999999999995-25.1  409.5-25.2L 409.5-25.2L 394.5-27.3Q 387.5-28.3  383.25-31.9Q 379-35.5  379-43.9L 379-43.9L 379-54.4Q 379-62.9  384.5-67.45Q 390-72  399.7-72L 399.7-72L 427.7-72Q 429.59999999999997-72  430.45-71.15Q 431.29999999999995-70.3  431.29999999999995-68.4L 431.29999999999995-68.4L 431.29999999999995-56.5Q 431.29999999999995-54.6  430.45-53.75Q 429.59999999999997-52.9  427.7-52.9L 427.7-52.9L 404.4-52.9Q 403.09999999999997-52.9  402.4-52.05Q 401.7-51.2  401.7-49.9L 401.7-49.9Q 401.7-48.6  402.4-47.7Q 403.09999999999997-46.8  404.4-46.7L 404.4-46.7L 419.29999999999995-44.7Q 426.29999999999995-43.7  430.59999999999997-40.1Q 434.9-36.5  434.9-28.1L 434.9-28.1L 434.9-17.6Q 434.9-9.1  429.34999999999997-4.55Q 423.79999999999995 0  414.2 0ZM 478.7 0L 478.7 0L 447.09999999999997 0Q 445.2 0  444.34999999999997-0.85Q 443.5-1.7  443.5-3.6L 443.5-3.6L 443.5-15.3Q 443.5-17.2  444.34999999999997-18.05Q 445.2-18.9  447.09999999999997-18.9L 447.09999999999997-18.9L 474-18.9Q 475.29999999999995-18.9  475.95-19.75Q 476.59999999999997-20.6  476.59999999999997-21.8L 476.59999999999997-21.8Q 476.59999999999997-23.5  475.95-24.3Q 475.29999999999995-25.1  474-25.2L 474-25.2L 459-27.3Q 452-28.3  447.75-31.9Q 443.5-35.5  443.5-43.9L 443.5-43.9L 443.5-54.4Q 443.5-62.9  449-67.45Q 454.5-72  464.2-72L 464.2-72L 492.2-72Q 494.09999999999997-72  494.95-71.15Q 495.79999999999995-70.3  495.79999999999995-68.4L 495.79999999999995-68.4L 495.79999999999995-56.5Q 495.79999999999995-54.6  494.95-53.75Q 494.09999999999997-52.9  492.2-52.9L 492.2-52.9L 468.9-52.9Q 467.59999999999997-52.9  466.9-52.05Q 466.2-51.2  466.2-49.9L 466.2-49.9Q 466.2-48.6  466.9-47.7Q 467.59999999999997-46.8  468.9-46.7L 468.9-46.7L 483.79999999999995-44.7Q 490.79999999999995-43.7  495.09999999999997-40.1Q 499.4-36.5  499.4-28.1L 499.4-28.1L 499.4-17.6Q 499.4-9.1  493.84999999999997-4.55Q 488.29999999999995 0  478.7 0ZM 554.9 0L 512.3 0Q 510.4 0  509.54999999999995-0.85Q 508.7-1.7  508.7-3.6L 508.7-3.6L 508.7-15.5Q 508.7-17.4  509.54999999999995-18.25Q 510.4-19.1  512.3-19.1L 512.3-19.1L 522.1999999999999-19.1L 522.1999999999999-52.7L 512.3-52.7Q 510.4-52.7  509.54999999999995-53.55Q 508.7-54.4  508.7-56.3L 508.7-56.3L 508.7-68.4Q 508.7-70.3  509.54999999999995-71.15Q 510.4-72  512.3-72L 512.3-72L 554.9-72Q 556.8-72  557.65-71.15Q 558.5-70.3  558.5-68.4L 558.5-68.4L 558.5-56.3Q 558.5-54.4  557.65-53.55Q 556.8-52.7  554.9-52.7L 554.9-52.7L 545.1999999999999-52.7L 545.1999999999999-19.1L 554.9-19.1Q 556.8-19.1  557.65-18.25Q 558.5-17.4  558.5-15.5L 558.5-15.5L 558.5-3.6Q 558.5-1.7  557.65-0.85Q 556.8 0  554.9 0L 554.9 0ZM 589.9 0L 589.9 0L 574.4 0Q 572.5 0  571.65-0.85Q 570.8-1.7  570.8-3.6L 570.8-3.6L 570.8-68.4Q 570.8-70.3  571.65-71.15Q 572.5-72  574.4-72L 574.4-72L 605-72Q 618.6-72  623.6-66.6Q 628.6-61.2  628.6-52.5L 628.6-52.5L 628.6-39.7Q 628.6-31  623.6-25.6Q 618.6-20.2  605-20.2L 605-20.2L 593.5-20.2L 593.5-3.6Q 593.5-1.7  592.65-0.85Q 591.8 0  589.9 0ZM 602.3-53.3L 593.3-53.3L 593.3-38.2L 602.3-38.2Q 605.1999999999999-38.2  606.1-39.7Q 607-41.2  607-43.1L 607-43.1L 607-48.4Q 607-50.3  606.1-51.8Q 605.1999999999999-53.3  602.3-53.3L 602.3-53.3Z"></path><path text="Project" text-anchor="start" font-size="100" letter-spacing="0" side="left" offset="0" dx="0" dy="0" space="preserve" href="" font-family="Bungee" font-scale="contain" transform="matrix(0.5749486088752747, 0, 0, 0.5749486088752747, 145.92461836367625, 298.2587227523327)" x="0" y="0" fill="#d41717" data-fl-textpath="" id="_LT9703mBXXvD2CqRzN1-_" d="M 26 0L 26 0L 10.5 0Q 8.6 0  7.75-0.85Q 6.9-1.7  6.9-3.6L 6.9-3.6L 6.9-68.4Q 6.9-70.3  7.75-71.15Q 8.6-72  10.5-72L 10.5-72L 41.1-72Q 54.7-72  59.7-66.6Q 64.7-61.2  64.7-52.5L 64.7-52.5L 64.7-39.7Q 64.7-31  59.7-25.6Q 54.7-20.2  41.1-20.2L 41.1-20.2L 29.6-20.2L 29.6-3.6Q 29.6-1.7  28.75-0.85Q 27.9 0  26 0ZM 38.4-53.3L 29.4-53.3L 29.4-38.2L 38.4-38.2Q 41.3-38.2  42.2-39.7Q 43.1-41.2  43.1-43.1L 43.1-43.1L 43.1-48.4Q 43.1-50.3  42.2-51.8Q 41.3-53.3  38.4-53.3L 38.4-53.3ZM 105.19999999999999-54L 97.69999999999999-54L 97.69999999999999-41.2L 105.19999999999999-41.2Q 107.79999999999998-41.2  108.69999999999999-42.55Q 109.6-43.9  109.6-45.9L 109.6-45.9L 109.6-49.3Q 109.6-51.3  108.69999999999999-52.65Q 107.79999999999998-54  105.19999999999999-54L 105.19999999999999-54ZM 94.1 0L 94.1 0L 78.69999999999999 0Q 76.79999999999998 0  75.94999999999999-0.85Q 75.1-1.7  75.1-3.6L 75.1-3.6L 75.1-68.4Q 75.1-70.3  75.94999999999999-71.15Q 76.79999999999998-72  78.69999999999999-72L 78.69999999999999-72L 111.99999999999999-72Q 123.19999999999999-72  127.44999999999999-67.35Q 131.7-62.7  131.7-55.3L 131.7-55.3L 131.7-50.7Q 131.7-46.5  130.45-43.55Q 129.2-40.6  126.1-39.3L 126.1-39.3Q 131.5-38.7  134.85-34.9Q 138.2-31.1  138.2-24.8L 138.2-24.8L 138.2-3.6Q 138.2-1.7  137.35-0.85Q 136.5 0  134.6 0L 134.6 0L 119.1 0Q 117.19999999999999 0  116.35-0.85Q 115.49999999999999-1.7  115.49999999999999-3.6L 115.49999999999999-3.6L 115.49999999999999-18.9Q 115.49999999999999-21.1  114.64999999999999-22.15Q 113.79999999999998-23.2  111.69999999999999-23.2L 111.69999999999999-23.2L 97.69999999999999-23.2L 97.69999999999999-3.6Q 97.69999999999999-1.7  96.85-0.85Q 95.99999999999999 0  94.1 0ZM 209.9-53L 209.9-18.9Q 209.9-14.3  208.55-10.55Q 207.2-6.8  203.75-4.15Q 200.3-1.5  194.25 0Q 188.2 1.5  178.9 1.5L 178.9 1.5Q 169.6 1.5  163.5 0Q 157.4-1.5  153.95-4.15Q 150.5-6.8  149.15-10.55Q 147.8-14.3  147.8-18.9L 147.8-18.9L 147.8-53Q 147.8-57.6  149.15-61.35Q 150.5-65.1  153.95-67.8Q 157.4-70.5  163.5-72Q 169.6-73.5  178.9-73.5L 178.9-73.5Q 188.2-73.5  194.25-72Q 200.3-70.5  203.75-67.8Q 207.2-65.1  208.55-61.35Q 209.9-57.6  209.9-53L 209.9-53ZM 170.5-49.4L 170.5-22.5Q 170.5-20.5  172-19.15Q 173.5-17.8  178.9-17.8L 178.9-17.8Q 184.3-17.8  185.8-19.15Q 187.3-20.5  187.3-22.5L 187.3-22.5L 187.3-49.4Q 187.3-51.3  185.8-52.65Q 184.3-54  178.9-54L 178.9-54Q 173.5-54  172-52.65Q 170.5-51.3  170.5-49.4L 170.5-49.4ZM 278.09999999999997-68.4L 278.09999999999997-18.9Q 278.09999999999997-14.3  276.8-10.55Q 275.5-6.8  272.25-4.15Q 269-1.5  263.3 0Q 257.59999999999997 1.5  248.79999999999998 1.5L 248.79999999999998 1.5Q 240.1 1.5  234.45 0Q 228.79999999999998-1.5  225.54999999999998-4.15Q 222.29999999999998-6.8  221.04999999999998-10.55Q 219.79999999999998-14.3  219.79999999999998-18.9L 219.79999999999998-18.9L 219.79999999999998-35.1Q 219.79999999999998-37  220.64999999999998-37.85Q 221.5-38.7  223.39999999999998-38.7L 223.39999999999998-38.7L 237.89999999999998-38.7Q 239.79999999999998-38.7  240.64999999999998-37.85Q 241.5-37  241.5-35.1L 241.5-35.1L 241.5-22.9Q 241.5-20.9  242.75-19.55Q 244-18.2  248.6-18.2L 248.6-18.2Q 252.89999999999998-18.2  254.04999999999998-19.55Q 255.2-20.9  255.2-22.9L 255.2-22.9L 255.2-68.4Q 255.2-70.3  256.05-71.15Q 256.9-72  258.8-72L 258.8-72L 274.5-72Q 276.4-72  277.25-71.15Q 278.09999999999997-70.3  278.09999999999997-68.4L 278.09999999999997-68.4ZM 341.4 0L 341.4 0L 295 0Q 293.1 0  292.25-0.85Q 291.4-1.7  291.4-3.6L 291.4-3.6L 291.4-68.4Q 291.4-70.3  292.25-71.15Q 293.1-72  295-72L 295-72L 341.4-72Q 343.3-72  344.15-71.15Q 345-70.3  345-68.4L 345-68.4L 345-56.7Q 345-54.8  344.15-53.95Q 343.3-53.1  341.4-53.1L 341.4-53.1L 313.8-53.1L 313.8-45.4L 333.3-45.4Q 335.2-45.4  336.05-44.55Q 336.9-43.7  336.9-41.8L 336.9-41.8L 336.9-31.1Q 336.9-29.2  336.05-28.35Q 335.2-27.5  333.3-27.5L 333.3-27.5L 313.8-27.5L 313.8-18.9L 341.4-18.9Q 343.3-18.9  344.15-18.05Q 345-17.2  345-15.3L 345-15.3L 345-3.6Q 345-1.7  344.15-0.85Q 343.3 0  341.4 0ZM 404.2 0L 404.2 0L 379.79999999999995 0Q 367.29999999999995 0  361.25-5Q 355.2-10  355.2-20.4L 355.2-20.4L 355.2-51.5Q 355.2-61.9  361.25-66.95Q 367.29999999999995-72  379.79999999999995-72L 379.79999999999995-72L 404.2-72Q 406.09999999999997-72  406.95-71.15Q 407.79999999999995-70.3  407.79999999999995-68.4L 407.79999999999995-68.4L 407.79999999999995-56.3Q 407.79999999999995-54.4  406.95-53.55Q 406.09999999999997-52.7  404.2-52.7L 404.2-52.7L 384.09999999999997-52.7Q 381-52.7  379.5-51.45Q 378-50.2  378-47.7L 378-47.7L 378-23.9Q 378-21.4  379.5-20.25Q 381-19.1  384.09999999999997-19.1L 384.09999999999997-19.1L 404.2-19.1Q 406.09999999999997-19.1  406.95-18.25Q 407.79999999999995-17.4  407.79999999999995-15.5L 407.79999999999995-15.5L 407.79999999999995-3.6Q 407.79999999999995-1.7  406.95-0.85Q 406.09999999999997 0  404.2 0ZM 453.09999999999997 0L 453.09999999999997 0L 436.9 0Q 435 0  434.15-0.85Q 433.3-1.7  433.3-3.6L 433.3-3.6L 433.3-52.7L 418.59999999999997-52.7Q 416.7-52.7  415.84999999999997-53.55Q 415-54.4  415-56.3L 415-56.3L 415-68.4Q 415-70.3  415.84999999999997-71.15Q 416.7-72  418.59999999999997-72L 418.59999999999997-72L 471.4-72Q 473.3-72  474.15-71.15Q 475-70.3  475-68.4L 475-68.4L 475-56.3Q 475-54.4  474.15-53.55Q 473.3-52.7  471.4-52.7L 471.4-52.7L 456.7-52.7L 456.7-3.6Q 456.7-1.7  455.84999999999997-0.85Q 455 0  453.09999999999997 0Z"></path><path id="_k08helhpR_Dlyy1GW_-pD" d="M88.09.74H42.29a11.42,11.42,0,0,0-11.41,11.4V31.86H11.06A10.57,10.57,0,0,0,.5,42.42V75A10.57,10.57,0,0,0,11.06,85.6h4.66V96.76A2.5,2.5,0,0,0,20,98.53l13-12.93H51.59A10.57,10.57,0,0,0,62.15,75V59.59H64L78.42,73.95a2.5,2.5,0,0,0,4.27-1.77V59.59h5.41A11.42,11.42,0,0,0,99.5,48.18v-36A11.42,11.42,0,0,0,88.09.74ZM57.15,75a5.57,5.57,0,0,1-5.56,5.56H31.91a2.5,2.5,0,0,0-1.77.73l-9.42,9.4V83.1a2.5,2.5,0,0,0-2.5-2.5H11.06A5.57,5.57,0,0,1,5.5,75V42.42a5.57,5.57,0,0,1,5.56-5.56H30.89V48.18A11.42,11.42,0,0,0,42.29,59.59H57.15ZM94.5,48.18a6.41,6.41,0,0,1-6.41,6.41H80.18a2.5,2.5,0,0,0-2.5,2.5v9.06L66.83,55.32a2.5,2.5,0,0,0-1.77-.73H42.29a6.41,6.41,0,0,1-6.41-6.41v-36a6.41,6.41,0,0,1,6.41-6.4h45.8a6.41,6.41,0,0,1,6.41,6.4Z" stroke="none" fill="#334747" transform="matrix(1.1839749813079834, 0, 0, 1.1839749813079834, 20.000049591064453, 196.79261779785156)" stroke-width="1"></path><path id="_SzOGutgdP9UB7Bpik8ioX" d="M45.002,13.514C32.973-12.474-8.937,1.357,1.718,35.105C7.436,51.887,19.058,59.327,45,78.039    c25.945-18.712,37.563-26.154,43.283-42.934C98.933,1.357,57.028-12.474,45.002,13.514z" stroke="none" fill="#334747" transform="matrix(0.38680899143218994, 0, 0, 0.38680899143218994, 80.0935287475586, 218.9582977294922)" stroke-width="1"></path></svg>